<?xml version="1.0" encoding="UTF-8" standalone="no"?>
<!-- Created with Inkscape (http://www.inkscape.org/) -->

<svg
   xmlns:dc="http://purl.org/dc/elements/1.1/"
   xmlns:cc="http://creativecommons.org/ns#"
   xmlns:rdf="http://www.w3.org/1999/02/22-rdf-syntax-ns#"
   xmlns:svg="http://www.w3.org/2000/svg"
   xmlns="http://www.w3.org/2000/svg"
   xmlns:sodipodi="http://sodipodi.sourceforge.net/DTD/sodipodi-0.dtd"
   xmlns:inkscape="http://www.inkscape.org/namespaces/inkscape"
   width="744.09448819"
   height="1052.3622047"
   id="svg2"
   version="1.1"
   inkscape:version="0.48.5 r10040"
   sodipodi:docname="staticNeuronNetwork.svg"
   inkscape:export-filename="D:\Drive\00\перерисовать рисунки\staticNeuronNetwork.png"
   inkscape:export-xdpi="600"
   inkscape:export-ydpi="600">
  <defs
     id="defs4">
    <marker
       inkscape:stockid="Arrow2Mend"
       orient="auto"
       refY="0.0"
       refX="0.0"
       id="Arrow2Mend"
       style="overflow:visible;">
      <path
         id="path4078"
         style="fill-rule:evenodd;stroke-width:0.62500000;stroke-linejoin:round;"
         d="M 8.7185878,4.0337352 L -2.2072895,0.016013256 L 8.7185884,-4.0017078 C 6.9730900,-1.6296469 6.9831476,1.6157441 8.7185878,4.0337352 z "
         transform="scale(0.6) rotate(180) translate(0,0)" />
    </marker>
    <marker
       inkscape:stockid="Arrow1Mend"
       orient="auto"
       refY="0.0"
       refX="0.0"
       id="Arrow1Mend"
       style="overflow:visible;">
      <path
         id="path4060"
         d="M 0.0,0.0 L 5.0,-5.0 L -12.5,0.0 L 5.0,5.0 L 0.0,0.0 z "
         style="fill-rule:evenodd;stroke:#000000;stroke-width:1.0pt;"
         transform="scale(0.4) rotate(180) translate(10,0)" />
    </marker>
    <marker
       inkscape:stockid="Arrow2Lend"
       orient="auto"
       refY="0.0"
       refX="0.0"
       id="Arrow2Lend"
       style="overflow:visible;">
      <path
         id="path4072"
         style="fill-rule:evenodd;stroke-width:0.62500000;stroke-linejoin:round;"
         d="M 8.7185878,4.0337352 L -2.2072895,0.016013256 L 8.7185884,-4.0017078 C 6.9730900,-1.6296469 6.9831476,1.6157441 8.7185878,4.0337352 z "
         transform="scale(1.1) rotate(180) translate(1,0)" />
    </marker>
    <marker
       inkscape:stockid="DotS"
       orient="auto"
       refY="0.0"
       refX="0.0"
       id="DotS"
       style="overflow:visible">
      <path
         id="path4118"
         d="M -2.5,-1.0 C -2.5,1.7600000 -4.7400000,4.0 -7.5,4.0 C -10.260000,4.0 -12.5,1.7600000 -12.5,-1.0 C -12.5,-3.7600000 -10.260000,-6.0 -7.5,-6.0 C -4.7400000,-6.0 -2.5,-3.7600000 -2.5,-1.0 z "
         style="fill-rule:evenodd;stroke:#000000;stroke-width:1.0pt"
         transform="scale(0.2) translate(7.4, 1)" />
    </marker>
    <marker
       inkscape:stockid="DotM"
       orient="auto"
       refY="0.0"
       refX="0.0"
       id="DotM"
       style="overflow:visible">
      <path
         id="path4115"
         d="M -2.5,-1.0 C -2.5,1.7600000 -4.7400000,4.0 -7.5,4.0 C -10.260000,4.0 -12.5,1.7600000 -12.5,-1.0 C -12.5,-3.7600000 -10.260000,-6.0 -7.5,-6.0 C -4.7400000,-6.0 -2.5,-3.7600000 -2.5,-1.0 z "
         style="fill-rule:evenodd;stroke:#000000;stroke-width:1.0pt"
         transform="scale(0.4) translate(7.4, 1)" />
    </marker>
    <marker
       inkscape:stockid="Legs"
       orient="auto"
       refY="0.0"
       refX="0.0"
       id="Legs"
       style="overflow:visible">
      <g
         id="g4250"
         transform="scale(-0.7)">
        <g
           id="g4252"
           transform="matrix(0,-1.000000,-1.000000,0,20.70862,21.31391)">
          <path
             id="path4254"
             d="M 21.221250,20.675360 C 14.311099,25.396517 18.766725,27.282204 15.380179,34.118595"
             style="fill:none;fill-opacity:0.75000000;fill-rule:evenodd;stroke:#000000;stroke-width:1.0000000pt" />
          <path
             id="path4256"
             d="M 21.398110,20.548120 C 20.037601,28.895644 24.934182,29.318060 25.903151,34.373078"
             style="fill:none;fill-opacity:0.75000000;fill-rule:evenodd;stroke:#000000;stroke-width:1.0000000pt" />
        </g>
        <path
           id="path4258"
           d="M -14.090070,-6.7318716 L -15.012238,-2.6884886 L -11.049487,-3.9115586 L -14.090070,-6.7318716 z "
           style="fill:#030300;fill-rule:evenodd;stroke-width:1.0000000pt" />
        <path
           id="path4260"
           d="M -15.215679,4.5567534 L -13.341552,8.2563664 L -11.074678,4.7835114 L -15.215679,4.5567534 z "
           style="fill:#030300;fill-rule:evenodd;stroke-width:1.0000000pt" />
      </g>
    </marker>
    <marker
       inkscape:stockid="EmptyTriangleOutL"
       orient="auto"
       refY="0.0"
       refX="0.0"
       id="EmptyTriangleOutL"
       style="overflow:visible">
      <path
         id="path4211"
         d="M 5.77,0.0 L -2.88,5.0 L -2.88,-5.0 L 5.77,0.0 z "
         style="fill-rule:evenodd;fill:#FFFFFF;stroke:#000000;stroke-width:1.0pt"
         transform="scale(0.8) translate(-6,0)" />
    </marker>
    <marker
       inkscape:stockid="EmptyTriangleOutS"
       orient="auto"
       refY="0.0"
       refX="0.0"
       id="EmptyTriangleOutS"
       style="overflow:visible">
      <path
         id="path4217"
         d="M 5.77,0.0 L -2.88,5.0 L -2.88,-5.0 L 5.77,0.0 z "
         style="fill-rule:evenodd;fill:#FFFFFF;stroke:#000000;stroke-width:1.0pt"
         transform="scale(0.2) translate(-3.0,0)" />
    </marker>
    <marker
       inkscape:stockid="EmptyTriangleOutM"
       orient="auto"
       refY="0.0"
       refX="0.0"
       id="EmptyTriangleOutM"
       style="overflow:visible">
      <path
         id="path4214"
         d="M 5.77,0.0 L -2.88,5.0 L -2.88,-5.0 L 5.77,0.0 z "
         style="fill-rule:evenodd;fill:#FFFFFF;stroke:#000000;stroke-width:1.0pt"
         transform="scale(0.4) translate(-4.5,0)" />
    </marker>
    <marker
       inkscape:stockid="Arrow1Lend"
       orient="auto"
       refY="0.0"
       refX="0.0"
       id="Arrow1Lend"
       style="overflow:visible;">
      <path
         id="path4054"
         d="M 0.0,0.0 L 5.0,-5.0 L -12.5,0.0 L 5.0,5.0 L 0.0,0.0 z "
         style="fill-rule:evenodd;stroke:#000000;stroke-width:1.0pt;"
         transform="scale(0.8) rotate(180) translate(12.5,0)" />
    </marker>
    <marker
       inkscape:stockid="DotL"
       orient="auto"
       refY="0.0"
       refX="0.0"
       id="DotL"
       style="overflow:visible">
      <path
         id="path4112"
         d="M -2.5,-1.0 C -2.5,1.7600000 -4.7400000,4.0 -7.5,4.0 C -10.260000,4.0 -12.5,1.7600000 -12.5,-1.0 C -12.5,-3.7600000 -10.260000,-6.0 -7.5,-6.0 C -4.7400000,-6.0 -2.5,-3.7600000 -2.5,-1.0 z "
         style="fill-rule:evenodd;stroke:#000000;stroke-width:1.0pt"
         transform="scale(0.8) translate(7.4, 1)" />
    </marker>
    <marker
       inkscape:stockid="DotS"
       orient="auto"
       refY="0"
       refX="0"
       id="DotS-2"
       style="overflow:visible">
      <path
         inkscape:connector-curvature="0"
         id="path4118-4"
         d="m -2.5,-1 c 0,2.76 -2.24,5 -5,5 -2.76,0 -5,-2.24 -5,-5 0,-2.76 2.24,-5 5,-5 2.76,0 5,2.24 5,5 z"
         style="fill-rule:evenodd;stroke:#000000;stroke-width:1pt"
         transform="matrix(0.2,0,0,0.2,1.48,0.2)" />
    </marker>
    <marker
       inkscape:stockid="EmptyTriangleOutM"
       orient="auto"
       refY="0"
       refX="0"
       id="EmptyTriangleOutM-5"
       style="overflow:visible">
      <path
         inkscape:connector-curvature="0"
         id="path4214-5"
         d="m 5.77,0 -8.65,5 0,-10 8.65,5 z"
         style="fill:#ffffff;fill-rule:evenodd;stroke:#000000;stroke-width:1pt"
         transform="matrix(0.4,0,0,0.4,-1.8,0)" />
    </marker>
    <marker
       inkscape:stockid="DotS"
       orient="auto"
       refY="0"
       refX="0"
       id="DotS-7"
       style="overflow:visible">
      <path
         inkscape:connector-curvature="0"
         id="path4118-1"
         d="m -2.5,-1 c 0,2.76 -2.24,5 -5,5 -2.76,0 -5,-2.24 -5,-5 0,-2.76 2.24,-5 5,-5 2.76,0 5,2.24 5,5 z"
         style="fill-rule:evenodd;stroke:#000000;stroke-width:1pt"
         transform="matrix(0.2,0,0,0.2,1.48,0.2)" />
    </marker>
    <marker
       inkscape:stockid="EmptyTriangleOutM"
       orient="auto"
       refY="0"
       refX="0"
       id="EmptyTriangleOutM-1"
       style="overflow:visible">
      <path
         inkscape:connector-curvature="0"
         id="path4214-52"
         d="m 5.77,0 -8.65,5 0,-10 8.65,5 z"
         style="fill:#ffffff;fill-rule:evenodd;stroke:#000000;stroke-width:1pt"
         transform="matrix(0.4,0,0,0.4,-1.8,0)" />
    </marker>
    <marker
       inkscape:stockid="Arrow2Mend"
       orient="auto"
       refY="0"
       refX="0"
       id="Arrow2Mend-6"
       style="overflow:visible">
      <path
         inkscape:connector-curvature="0"
         id="path4078-1"
         style="fill-rule:evenodd;stroke-width:0.625;stroke-linejoin:round"
         d="M 8.7185878,4.0337352 -2.2072895,0.01601326 8.7185884,-4.0017078 c -1.7454984,2.3720609 -1.7354408,5.6174519 -6e-7,8.035443 z"
         transform="scale(-0.6,-0.6)" />
    </marker>
    <marker
       inkscape:stockid="DotS"
       orient="auto"
       refY="0"
       refX="0"
       id="DotS-23"
       style="overflow:visible">
      <path
         inkscape:connector-curvature="0"
         id="path4118-2"
         d="m -2.5,-1 c 0,2.76 -2.24,5 -5,5 -2.76,0 -5,-2.24 -5,-5 0,-2.76 2.24,-5 5,-5 2.76,0 5,2.24 5,5 z"
         style="fill-rule:evenodd;stroke:#000000;stroke-width:1pt"
         transform="matrix(0.2,0,0,0.2,1.48,0.2)" />
    </marker>
    <marker
       inkscape:stockid="EmptyTriangleOutM"
       orient="auto"
       refY="0"
       refX="0"
       id="EmptyTriangleOutM-2"
       style="overflow:visible">
      <path
         inkscape:connector-curvature="0"
         id="path4214-1"
         d="m 5.77,0 -8.65,5 0,-10 8.65,5 z"
         style="fill:#ffffff;fill-rule:evenodd;stroke:#000000;stroke-width:1pt"
         transform="matrix(0.4,0,0,0.4,-1.8,0)" />
    </marker>
    <marker
       inkscape:stockid="DotS"
       orient="auto"
       refY="0"
       refX="0"
       id="DotS-8"
       style="overflow:visible">
      <path
         inkscape:connector-curvature="0"
         id="path4118-5"
         d="m -2.5,-1 c 0,2.76 -2.24,5 -5,5 -2.76,0 -5,-2.24 -5,-5 0,-2.76 2.24,-5 5,-5 2.76,0 5,2.24 5,5 z"
         style="fill-rule:evenodd;stroke:#000000;stroke-width:1pt"
         transform="matrix(0.2,0,0,0.2,1.48,0.2)" />
    </marker>
    <marker
       inkscape:stockid="EmptyTriangleOutM"
       orient="auto"
       refY="0"
       refX="0"
       id="EmptyTriangleOutM-7"
       style="overflow:visible">
      <path
         inkscape:connector-curvature="0"
         id="path4214-6"
         d="m 5.77,0 -8.65,5 0,-10 8.65,5 z"
         style="fill:#ffffff;fill-rule:evenodd;stroke:#000000;stroke-width:1pt"
         transform="matrix(0.4,0,0,0.4,-1.8,0)" />
    </marker>
    <marker
       inkscape:stockid="DotS"
       orient="auto"
       refY="0"
       refX="0"
       id="DotS-89"
       style="overflow:visible">
      <path
         inkscape:connector-curvature="0"
         id="path4118-27"
         d="m -2.5,-1 c 0,2.76 -2.24,5 -5,5 -2.76,0 -5,-2.24 -5,-5 0,-2.76 2.24,-5 5,-5 2.76,0 5,2.24 5,5 z"
         style="fill-rule:evenodd;stroke:#000000;stroke-width:1pt"
         transform="matrix(0.2,0,0,0.2,1.48,0.2)" />
    </marker>
    <marker
       inkscape:stockid="EmptyTriangleOutM"
       orient="auto"
       refY="0"
       refX="0"
       id="EmptyTriangleOutM-9"
       style="overflow:visible">
      <path
         inkscape:connector-curvature="0"
         id="path4214-54"
         d="m 5.77,0 -8.65,5 0,-10 8.65,5 z"
         style="fill:#ffffff;fill-rule:evenodd;stroke:#000000;stroke-width:1pt"
         transform="matrix(0.4,0,0,0.4,-1.8,0)" />
    </marker>
    <marker
       inkscape:stockid="DotS"
       orient="auto"
       refY="0"
       refX="0"
       id="DotS-1"
       style="overflow:visible">
      <path
         inkscape:connector-curvature="0"
         id="path4118-23"
         d="m -2.5,-1 c 0,2.76 -2.24,5 -5,5 -2.76,0 -5,-2.24 -5,-5 0,-2.76 2.24,-5 5,-5 2.76,0 5,2.24 5,5 z"
         style="fill-rule:evenodd;stroke:#000000;stroke-width:1pt"
         transform="matrix(0.2,0,0,0.2,1.48,0.2)" />
    </marker>
    <marker
       inkscape:stockid="EmptyTriangleOutM"
       orient="auto"
       refY="0"
       refX="0"
       id="EmptyTriangleOutM-3"
       style="overflow:visible">
      <path
         inkscape:connector-curvature="0"
         id="path4214-4"
         d="m 5.77,0 -8.65,5 0,-10 8.65,5 z"
         style="fill:#ffffff;fill-rule:evenodd;stroke:#000000;stroke-width:1pt"
         transform="matrix(0.4,0,0,0.4,-1.8,0)" />
    </marker>
    <font
       horiz-adv-x="1024"
       id="font4495"
       inkscape:label="font 1">
      <font-face
         units-per-em="1024"
         id="font-face4497"
         font-family="SVGFont 1" />
      <missing-glyph
         d="M0,0h1000v1024h-1000z"
         id="missing-glyph4499" />
    </font>
  </defs>
  <sodipodi:namedview
     id="base"
     pagecolor="#ffffff"
     bordercolor="#666666"
     borderopacity="1.0"
     inkscape:pageopacity="0.0"
     inkscape:pageshadow="2"
     inkscape:zoom="1.4142136"
     inkscape:cx="185.60132"
     inkscape:cy="771.65582"
     inkscape:document-units="px"
     inkscape:current-layer="layer1"
     showgrid="false"
     inkscape:window-width="1339"
     inkscape:window-height="1018"
     inkscape:window-x="1913"
     inkscape:window-y="96"
     inkscape:window-maximized="0" />
  <metadata
     id="metadata7">
    <rdf:RDF>
      <cc:Work
         rdf:about="">
        <dc:format>image/svg+xml</dc:format>
        <dc:type
           rdf:resource="http://purl.org/dc/dcmitype/StillImage" />
        <dc:title></dc:title>
      </cc:Work>
    </rdf:RDF>
  </metadata>
  <g
     inkscape:label="Layer 1"
     inkscape:groupmode="layer"
     id="layer1">
    <rect
       style="fill:none;stroke:#000000;stroke-width:1.00015008;stroke-linejoin:miter;stroke-miterlimit:4;stroke-opacity:1;stroke-dasharray:none;stroke-dashoffset:0"
       id="rect2985"
       width="248.99985"
       height="48.999851"
       x="100.50008"
       y="202.86226" />
    <flowRoot
       xml:space="preserve"
       id="flowRoot2993"
       style="fill:black;stroke:none;stroke-opacity:1;stroke-width:1px;stroke-linejoin:miter;stroke-linecap:butt;fill-opacity:1;font-family:Sans;font-style:normal;font-weight:normal;font-size:6px;line-height:125%;letter-spacing:0px;word-spacing:0px"><flowRegion
         id="flowRegion2995"><rect
           id="rect2997"
           width="10.714286"
           height="10.714286"
           x="182.5"
           y="307.36218" /></flowRegion><flowPara
         id="flowPara2999" /></flowRoot>    <text
       xml:space="preserve"
       style="font-size:13.91304302px;font-style:normal;font-weight:normal;line-height:125%;letter-spacing:0px;word-spacing:0px;fill:#000000;fill-opacity:1;stroke:none;font-family:Sans;-inkscape-font-specification:Sans"
       x="148.20856"
       y="398.36218"
       id="text8050-1"
       sodipodi:linespacing="125%"><tspan
         sodipodi:role="line"
         id="tspan8077"
         x="0"
         y="0"
         style="font-family:Times New Roman;-inkscape-font-specification:Times New Roman"><tspan
           style="font-size:65.00091553%;font-style:normal;baseline-shift:sub;font-family:Times New Roman;-inkscape-font-specification:Times New Roman"
           id="tspan8079" /></tspan></text>
    <text
       xml:space="preserve"
       style="font-size:6px;font-style:normal;font-weight:normal;line-height:125%;letter-spacing:0px;word-spacing:0px;fill:#000000;fill-opacity:1;stroke:none;font-family:Sans"
       x="109.07122"
       y="380.43396"
       id="text8087"
       sodipodi:linespacing="125%"><tspan
         sodipodi:role="line"
         id="tspan8089"
         x="0"
         y="0"
         style="font-style:oblique;font-family:Times New Roman;-inkscape-font-specification:Times New Roman"><tspan
           style="font-size:65.00091553%;font-style:oblique;baseline-shift:sub;font-family:Times New Roman;-inkscape-font-specification:Times New Roman"
           id="tspan8091" /></tspan></text>
    <text
       xml:space="preserve"
       style="font-size:6px;font-style:normal;font-weight:normal;line-height:125%;letter-spacing:0px;word-spacing:0px;fill:#000000;fill-opacity:1;stroke:none;font-family:Sans"
       x="147.43176"
       y="328.99194"
       id="text8111"
       sodipodi:linespacing="125%"><tspan
         sodipodi:role="line"
         id="tspan8113"
         x="147.43176"
         y="328.99194"
         style="font-size:40px;font-style:oblique;font-family:Times New Roman;-inkscape-font-specification:Times New Roman" /></text>
    <text
       xml:space="preserve"
       style="font-size:16px;font-style:normal;font-weight:normal;line-height:125%;letter-spacing:0px;word-spacing:0px;fill:#000000;fill-opacity:1;stroke:none;font-family:Sans"
       x="140.3607"
       y="222.57236"
       id="text4487"
       sodipodi:linespacing="125%"><tspan
         sodipodi:role="line"
         id="tspan4489"
         x="140.3607"
         y="222.57236">Вычисление признаков</tspan></text>
    <text
       xml:space="preserve"
       style="font-size:6px;font-style:normal;font-weight:normal;line-height:125%;letter-spacing:0px;word-spacing:0px;fill:#000000;fill-opacity:1;stroke:none;font-family:Sans"
       x="127.98632"
       y="241.31068"
       id="text4491"
       sodipodi:linespacing="125%"><tspan
         sodipodi:role="line"
         id="tspan4493"
         x="127.98632"
         y="241.31068"
         style="font-size:12px">(число нейронов ≈ число признаков)</tspan></text>
    <path
       sodipodi:type="arc"
       style="fill:#00000d;fill-opacity:0.05882353;stroke:#000000;stroke-width:1;stroke-linecap:butt;stroke-linejoin:miter;stroke-miterlimit:4;stroke-opacity:1;stroke-dasharray:none;stroke-dashoffset:0"
       id="path4567"
       sodipodi:cx="115.75"
       sodipodi:cy="149.11217"
       sodipodi:rx="6.75"
       sodipodi:ry="7.25"
       d="m 122.5,149.11217 a 6.75,7.25 0 1 1 -13.5,0 6.75,7.25 0 1 1 13.5,0 z"
       transform="matrix(1.036993,0,0,0.96547615,-2.5319391,0.89794136)" />
    <path
       sodipodi:type="arc"
       style="fill:#00000d;fill-opacity:0.05882353;stroke:#000000;stroke-width:1;stroke-linecap:butt;stroke-linejoin:miter;stroke-miterlimit:4;stroke-opacity:1;stroke-dasharray:none;stroke-dashoffset:0"
       id="path4567-1"
       sodipodi:cx="115.75"
       sodipodi:cy="149.11217"
       sodipodi:rx="6.75"
       sodipodi:ry="7.25"
       d="m 122.5,149.11217 a 6.75,7.25 0 1 1 -13.5,0 6.75,7.25 0 1 1 13.5,0 z"
       transform="matrix(1.036993,0,0,0.96547615,51.218061,0.89794136)" />
    <path
       sodipodi:type="arc"
       style="fill:#00000d;fill-opacity:0.05882353;stroke:#000000;stroke-width:1;stroke-linecap:butt;stroke-linejoin:miter;stroke-miterlimit:4;stroke-opacity:1;stroke-dasharray:none;stroke-dashoffset:0"
       id="path4567-7"
       sodipodi:cx="115.75"
       sodipodi:cy="149.11217"
       sodipodi:rx="6.75"
       sodipodi:ry="7.25"
       d="m 122.5,149.11217 a 6.75,7.25 0 1 1 -13.5,0 6.75,7.25 0 1 1 13.5,0 z"
       transform="matrix(1.036993,0,0,0.96547615,104.96806,0.89794136)" />
    <path
       sodipodi:type="arc"
       style="fill:#00000d;fill-opacity:0.05882353;stroke:#000000;stroke-width:1;stroke-linecap:butt;stroke-linejoin:miter;stroke-miterlimit:4;stroke-opacity:1;stroke-dasharray:none;stroke-dashoffset:0"
       id="path4567-4"
       sodipodi:cx="115.75"
       sodipodi:cy="149.11217"
       sodipodi:rx="6.75"
       sodipodi:ry="7.25"
       d="m 122.5,149.11217 a 6.75,7.25 0 1 1 -13.5,0 6.75,7.25 0 1 1 13.5,0 z"
       transform="matrix(1.036993,0,0,0.96547615,212.46806,0.89794136)" />
    <path
       sodipodi:type="arc"
       style="fill:#00000d;fill-opacity:0.05882353;stroke:#000000;stroke-width:1;stroke-linecap:butt;stroke-linejoin:miter;stroke-miterlimit:4;stroke-opacity:1;stroke-dasharray:none;stroke-dashoffset:0"
       id="path4567-0"
       sodipodi:cx="115.75"
       sodipodi:cy="149.11217"
       sodipodi:rx="6.75"
       sodipodi:ry="7.25"
       d="m 122.5,149.11217 a 6.75,7.25 0 1 1 -13.5,0 6.75,7.25 0 1 1 13.5,0 z"
       transform="matrix(1.036993,0,0,0.96547615,158.71806,0.89794136)" />
    <rect
       style="fill:none;stroke:#000000;stroke-width:1.00015008;stroke-linejoin:miter;stroke-miterlimit:4;stroke-opacity:1;stroke-dasharray:none;stroke-dashoffset:0"
       id="rect2985-9"
       width="248.99985"
       height="48.999851"
       x="100.50008"
       y="302.86224" />
    <rect
       style="fill:none;stroke:#000000;stroke-width:1.00015008;stroke-linejoin:miter;stroke-miterlimit:4;stroke-opacity:1;stroke-dasharray:none;stroke-dashoffset:0"
       id="rect2985-9-4"
       width="248.99985"
       height="48.999851"
       x="100.50008"
       y="402.86224" />
    <text
       xml:space="preserve"
       style="font-size:16px;font-style:normal;font-weight:normal;line-height:125%;letter-spacing:0px;word-spacing:0px;fill:#000000;fill-opacity:1;stroke:none;font-family:Sans"
       x="140.09705"
       y="322.95688"
       id="text4487-8"
       sodipodi:linespacing="125%"><tspan
         sodipodi:role="line"
         id="tspan4489-8"
         x="140.09705"
         y="322.95688">Распознавание фонем</tspan></text>
    <text
       xml:space="preserve"
       style="font-size:6px;font-style:normal;font-weight:normal;line-height:125%;letter-spacing:0px;word-spacing:0px;fill:#000000;fill-opacity:1;stroke:none;font-family:Sans"
       x="133.22266"
       y="340.69522"
       id="text4491-2"
       sodipodi:linespacing="125%"><tspan
         sodipodi:role="line"
         id="tspan4493-4"
         x="133.22266"
         y="340.69522"
         style="font-size:12px">(число нейронов ≈ число фонем)</tspan></text>
    <text
       xml:space="preserve"
       style="font-size:16px;font-style:normal;font-weight:normal;line-height:125%;letter-spacing:0px;word-spacing:0px;fill:#000000;fill-opacity:1;stroke:none;font-family:Sans"
       x="145.59705"
       y="431.45688"
       id="text4487-5"
       sodipodi:linespacing="125%"><tspan
         sodipodi:role="line"
         id="tspan4489-5"
         x="145.59705"
         y="431.45688">Распознавание слов</tspan></text>
    <path
       style="fill:none;stroke:#000000;stroke-width:1.00038373;stroke-linecap:butt;stroke-linejoin:miter;stroke-miterlimit:4;stroke-opacity:1;stroke-dasharray:none"
       d="m 117.49995,151.84262 0,50.99924"
       id="path3171"
       inkscape:connector-curvature="0" />
    <path
       style="fill:none;stroke:#000000;stroke-width:1.00038373;stroke-linecap:butt;stroke-linejoin:miter;stroke-miterlimit:4;stroke-opacity:1;stroke-dasharray:none"
       d="m 171.25019,151.86275 0,50.99924"
       id="path3171-1"
       inkscape:connector-curvature="0" />
    <path
       style="fill:none;stroke:#000000;stroke-width:1.00038373;stroke-linecap:butt;stroke-linejoin:miter;stroke-miterlimit:4;stroke-opacity:1;stroke-dasharray:none"
       d="m 225.00019,151.86275 0,50.99924"
       id="path3171-15"
       inkscape:connector-curvature="0" />
    <path
       style="fill:none;stroke:#000000;stroke-width:1.00038373;stroke-linecap:butt;stroke-linejoin:miter;stroke-miterlimit:4;stroke-opacity:1;stroke-dasharray:none"
       d="m 278.75019,151.86275 0,50.99924"
       id="path3171-2"
       inkscape:connector-curvature="0" />
    <path
       style="fill:none;stroke:#000000;stroke-width:1.00038373;stroke-linecap:butt;stroke-linejoin:miter;stroke-miterlimit:4;stroke-opacity:1;stroke-dasharray:none"
       d="m 332.50019,151.86275 0,50.99924"
       id="path3171-7"
       inkscape:connector-curvature="0" />
    <path
       style="fill:none;stroke:#000000;stroke-width:0.99829px;stroke-linecap:butt;stroke-linejoin:miter;stroke-opacity:1"
       d="m 117.18665,151.79883 53.62226,50.94679"
       id="path4139"
       inkscape:connector-curvature="0" />
    <path
       style="fill:none;stroke:#000000;stroke-width:1.0029285px;stroke-linecap:butt;stroke-linejoin:miter;stroke-opacity:1"
       d="M 224.16899,202.52738 117.32958,152.17614 277.83715,202.7804"
       id="path4141"
       inkscape:connector-curvature="0" />
    <path
       style="fill:none;stroke:#000000;stroke-width:0.99902534px;stroke-linecap:butt;stroke-linejoin:miter;stroke-opacity:1"
       d="m 117.77384,152.03309 214.92039,50.03368"
       id="path4143"
       inkscape:connector-curvature="0" />
    <path
       style="fill:none;stroke:#000000;stroke-width:1.00303221px;stroke-linecap:butt;stroke-linejoin:miter;stroke-opacity:1"
       d="m 117.59893,202.57296 54.09353,-50.50963 53.38645,50.50963"
       id="path4145"
       inkscape:connector-curvature="0" />
    <path
       style="fill:none;stroke:#000000;stroke-width:1.02219367px;stroke-linecap:butt;stroke-linejoin:miter;stroke-opacity:1"
       d="M 277.71459,202.8637 170.81659,151.91384 332.5889,202.8637"
       id="path4147"
       inkscape:connector-curvature="0" />
    <path
       style="fill:none;stroke:#000000;stroke-width:1.0040735px;stroke-linecap:butt;stroke-linejoin:miter;stroke-opacity:1"
       d="m 117.45364,202.91726 107.61947,-50.73747 -54.3425,50.38267"
       id="path4149"
       inkscape:connector-curvature="0" />
    <path
       style="fill:none;stroke:#000000;stroke-width:1.00750363px;stroke-linecap:butt;stroke-linejoin:miter;stroke-opacity:1"
       d="M 279.27999,202.93754 224.57265,151.92213 332.5846,202.57572"
       id="path4151"
       inkscape:connector-curvature="0" />
    <path
       style="fill:none;stroke:#000000;stroke-width:0.99553174px;stroke-linecap:butt;stroke-linejoin:miter;stroke-opacity:1"
       d="M 117.36768,202.57829 278.53797,152.01571 170.27358,202.93187"
       id="path4153"
       inkscape:connector-curvature="0" />
    <path
       style="fill:none;stroke:#000000;stroke-width:0.99672467px;stroke-linecap:butt;stroke-linejoin:miter;stroke-opacity:1"
       d="m 224.79551,202.90659 53.7715,-50.88175 53.77151,49.82172"
       id="path4155"
       inkscape:connector-curvature="0" />
    <path
       style="fill:none;stroke:#000000;stroke-width:0.99966115px;stroke-linecap:butt;stroke-linejoin:miter;stroke-opacity:1"
       d="M 117.28942,202.85167 332.11939,152.92219 170.90872,202.85167"
       id="path4157"
       inkscape:connector-curvature="0" />
    <path
       style="fill:none;stroke:#000000;stroke-width:0.99813682px;stroke-linecap:butt;stroke-linejoin:miter;stroke-opacity:1"
       d="M 225.16145,202.53669 332.69494,151.8605 278.57678,202.89106"
       id="path4159"
       inkscape:connector-curvature="0" />
    <path
       style="fill:none;stroke:#000000;stroke-width:1.00038373;stroke-linecap:butt;stroke-linejoin:miter;stroke-miterlimit:4;stroke-opacity:1;stroke-dasharray:none"
       d="m 117.50045,251.84251 0,50.99924"
       id="path3171-6"
       inkscape:connector-curvature="0" />
    <path
       style="fill:none;stroke:#000000;stroke-width:1.00038373;stroke-linecap:butt;stroke-linejoin:miter;stroke-miterlimit:4;stroke-opacity:1;stroke-dasharray:none"
       d="m 171.25069,251.86264 0,50.99924"
       id="path3171-1-1"
       inkscape:connector-curvature="0" />
    <path
       style="fill:none;stroke:#000000;stroke-width:1.00038373;stroke-linecap:butt;stroke-linejoin:miter;stroke-miterlimit:4;stroke-opacity:1;stroke-dasharray:none"
       d="m 225.0007,251.86264 0,50.99924"
       id="path3171-15-4"
       inkscape:connector-curvature="0" />
    <path
       style="fill:none;stroke:#000000;stroke-width:1.00038373;stroke-linecap:butt;stroke-linejoin:miter;stroke-miterlimit:4;stroke-opacity:1;stroke-dasharray:none"
       d="m 278.7507,251.86264 0,50.99924"
       id="path3171-2-2"
       inkscape:connector-curvature="0" />
    <path
       style="fill:none;stroke:#000000;stroke-width:1.00038373;stroke-linecap:butt;stroke-linejoin:miter;stroke-miterlimit:4;stroke-opacity:1;stroke-dasharray:none"
       d="m 332.5007,251.86264 0,50.99924"
       id="path3171-7-3"
       inkscape:connector-curvature="0" />
    <path
       style="fill:none;stroke:#000000;stroke-width:0.99829px;stroke-linecap:butt;stroke-linejoin:miter;stroke-opacity:1"
       d="m 117.18715,251.79872 53.62226,50.94679"
       id="path4139-2"
       inkscape:connector-curvature="0" />
    <path
       style="fill:none;stroke:#000000;stroke-width:1.0029285px;stroke-linecap:butt;stroke-linejoin:miter;stroke-opacity:1"
       d="M 224.1695,302.52727 117.33008,252.17603 277.83766,302.78029"
       id="path4141-2"
       inkscape:connector-curvature="0" />
    <path
       style="fill:none;stroke:#000000;stroke-width:0.99902534px;stroke-linecap:butt;stroke-linejoin:miter;stroke-opacity:1"
       d="m 117.77434,252.03298 214.9204,50.03368"
       id="path4143-1"
       inkscape:connector-curvature="0" />
    <path
       style="fill:none;stroke:#000000;stroke-width:1.00303221px;stroke-linecap:butt;stroke-linejoin:miter;stroke-opacity:1"
       d="m 117.59943,302.57285 54.09353,-50.50963 53.38646,50.50963"
       id="path4145-6"
       inkscape:connector-curvature="0" />
    <path
       style="fill:none;stroke:#000000;stroke-width:1.02219367px;stroke-linecap:butt;stroke-linejoin:miter;stroke-opacity:1"
       d="M 277.7151,302.86359 170.81709,251.91373 332.58941,302.86359"
       id="path4147-8"
       inkscape:connector-curvature="0" />
    <path
       style="fill:none;stroke:#000000;stroke-width:1.0040735px;stroke-linecap:butt;stroke-linejoin:miter;stroke-opacity:1"
       d="m 117.45414,302.91715 107.61948,-50.73747 -54.34251,50.38267"
       id="path4149-5"
       inkscape:connector-curvature="0" />
    <path
       style="fill:none;stroke:#000000;stroke-width:1.00750363px;stroke-linecap:butt;stroke-linejoin:miter;stroke-opacity:1"
       d="m 279.2805,302.93743 -54.70734,-51.01541 108.01195,50.65359"
       id="path4151-7"
       inkscape:connector-curvature="0" />
    <path
       style="fill:none;stroke:#000000;stroke-width:0.99553174px;stroke-linecap:butt;stroke-linejoin:miter;stroke-opacity:1"
       d="m 117.36818,302.57818 161.1703,-50.56258 -108.2644,50.91616"
       id="path4153-6"
       inkscape:connector-curvature="0" />
    <path
       style="fill:none;stroke:#000000;stroke-width:0.99672467px;stroke-linecap:butt;stroke-linejoin:miter;stroke-opacity:1"
       d="m 224.79602,302.90648 53.7715,-50.88175 53.77151,49.82172"
       id="path4155-1"
       inkscape:connector-curvature="0" />
    <path
       style="fill:none;stroke:#000000;stroke-width:0.99966115px;stroke-linecap:butt;stroke-linejoin:miter;stroke-opacity:1"
       d="M 117.28992,302.85156 332.1199,252.92208 170.90922,302.85156"
       id="path4157-8"
       inkscape:connector-curvature="0" />
    <path
       style="fill:none;stroke:#000000;stroke-width:0.99813682px;stroke-linecap:butt;stroke-linejoin:miter;stroke-opacity:1"
       d="m 225.16196,302.53658 107.53349,-50.67619 -54.11816,51.03056"
       id="path4159-9"
       inkscape:connector-curvature="0" />
    <path
       style="fill:none;stroke:#000000;stroke-width:1.00038373;stroke-linecap:butt;stroke-linejoin:miter;stroke-miterlimit:4;stroke-opacity:1;stroke-dasharray:none"
       d="m 117.50045,351.84251 0,50.99924"
       id="path3171-6-2"
       inkscape:connector-curvature="0" />
    <path
       style="fill:none;stroke:#000000;stroke-width:1.00038373;stroke-linecap:butt;stroke-linejoin:miter;stroke-miterlimit:4;stroke-opacity:1;stroke-dasharray:none"
       d="m 171.25069,351.86264 0,50.99924"
       id="path3171-1-1-7"
       inkscape:connector-curvature="0" />
    <path
       style="fill:none;stroke:#000000;stroke-width:1.00038373;stroke-linecap:butt;stroke-linejoin:miter;stroke-miterlimit:4;stroke-opacity:1;stroke-dasharray:none"
       d="m 225.0007,351.86264 0,50.99924"
       id="path3171-15-4-9"
       inkscape:connector-curvature="0" />
    <path
       style="fill:none;stroke:#000000;stroke-width:1.00038373;stroke-linecap:butt;stroke-linejoin:miter;stroke-miterlimit:4;stroke-opacity:1;stroke-dasharray:none"
       d="m 278.7507,351.86264 0,50.99924"
       id="path3171-2-2-5"
       inkscape:connector-curvature="0" />
    <path
       style="fill:none;stroke:#000000;stroke-width:1.00038373;stroke-linecap:butt;stroke-linejoin:miter;stroke-miterlimit:4;stroke-opacity:1;stroke-dasharray:none"
       d="m 332.5007,351.86264 0,50.99924"
       id="path3171-7-3-4"
       inkscape:connector-curvature="0" />
    <path
       style="fill:none;stroke:#000000;stroke-width:0.99829px;stroke-linecap:butt;stroke-linejoin:miter;stroke-opacity:1"
       d="m 117.18715,351.79872 53.62226,50.94679"
       id="path4139-2-3"
       inkscape:connector-curvature="0" />
    <path
       style="fill:none;stroke:#000000;stroke-width:1.0029285px;stroke-linecap:butt;stroke-linejoin:miter;stroke-opacity:1"
       d="M 224.1695,402.52727 117.33008,352.17603 277.83766,402.78029"
       id="path4141-2-1"
       inkscape:connector-curvature="0" />
    <path
       style="fill:none;stroke:#000000;stroke-width:0.99902534px;stroke-linecap:butt;stroke-linejoin:miter;stroke-opacity:1"
       d="m 117.77434,352.03298 214.9204,50.03368"
       id="path4143-1-2"
       inkscape:connector-curvature="0" />
    <path
       style="fill:none;stroke:#000000;stroke-width:1.00303221px;stroke-linecap:butt;stroke-linejoin:miter;stroke-opacity:1"
       d="m 117.59943,402.57285 54.09353,-50.50963 53.38646,50.50963"
       id="path4145-6-3"
       inkscape:connector-curvature="0" />
    <path
       style="fill:none;stroke:#000000;stroke-width:1.02219367px;stroke-linecap:butt;stroke-linejoin:miter;stroke-opacity:1"
       d="M 277.7151,402.86359 170.81709,351.91373 332.58941,402.86359"
       id="path4147-8-3"
       inkscape:connector-curvature="0" />
    <path
       style="fill:none;stroke:#000000;stroke-width:1.0040735px;stroke-linecap:butt;stroke-linejoin:miter;stroke-opacity:1"
       d="m 117.45414,402.91715 107.61948,-50.73747 -54.34251,50.38267"
       id="path4149-5-4"
       inkscape:connector-curvature="0" />
    <path
       style="fill:none;stroke:#000000;stroke-width:1.00750363px;stroke-linecap:butt;stroke-linejoin:miter;stroke-opacity:1"
       d="m 279.2805,402.93743 -54.70734,-51.01541 108.01195,50.65359"
       id="path4151-7-1"
       inkscape:connector-curvature="0" />
    <path
       style="fill:none;stroke:#000000;stroke-width:0.99553174px;stroke-linecap:butt;stroke-linejoin:miter;stroke-opacity:1"
       d="m 117.36818,402.57818 161.1703,-50.56258 -108.2644,50.91616"
       id="path4153-6-1"
       inkscape:connector-curvature="0" />
    <path
       style="fill:none;stroke:#000000;stroke-width:0.99672467px;stroke-linecap:butt;stroke-linejoin:miter;stroke-opacity:1"
       d="m 224.79602,402.90648 53.7715,-50.88175 53.77151,49.82172"
       id="path4155-1-3"
       inkscape:connector-curvature="0" />
    <path
       style="fill:none;stroke:#000000;stroke-width:0.99966115px;stroke-linecap:butt;stroke-linejoin:miter;stroke-opacity:1"
       d="M 117.28992,402.85156 332.1199,352.92208 170.90922,402.85156"
       id="path4157-8-8"
       inkscape:connector-curvature="0" />
    <path
       style="fill:none;stroke:#000000;stroke-width:0.99813682px;stroke-linecap:butt;stroke-linejoin:miter;stroke-opacity:1"
       d="m 225.16196,402.53658 107.53349,-50.67619 -54.11816,51.03056"
       id="path4159-9-7"
       inkscape:connector-curvature="0" />
    <path
       style="fill:none;stroke:#000000;stroke-width:0.99992436;stroke-linecap:butt;stroke-linejoin:miter;stroke-miterlimit:4;stroke-opacity:1;stroke-dasharray:none"
       d="m 150.49996,451.86206 0,29.00016"
       id="path3171-6-2-4"
       inkscape:connector-curvature="0" />
    <path
       style="fill:none;stroke:#000000;stroke-width:0.99992436;stroke-linecap:butt;stroke-linejoin:miter;stroke-miterlimit:4;stroke-opacity:1;stroke-dasharray:none"
       d="m 200.49996,451.86206 0,29.00016"
       id="path3171-6-2-4-2"
       inkscape:connector-curvature="0" />
    <path
       style="fill:none;stroke:#000000;stroke-width:0.99992436;stroke-linecap:butt;stroke-linejoin:miter;stroke-miterlimit:4;stroke-opacity:1;stroke-dasharray:none"
       d="m 250.49996,451.86206 0,29.00016"
       id="path3171-6-2-4-7"
       inkscape:connector-curvature="0" />
    <path
       style="fill:none;stroke:#000000;stroke-width:0.99992436;stroke-linecap:butt;stroke-linejoin:miter;stroke-miterlimit:4;stroke-opacity:1;stroke-dasharray:none"
       d="m 300.49996,451.86206 0,29.00016"
       id="path3171-6-2-4-79"
       inkscape:connector-curvature="0" />
    <text
       xml:space="preserve"
       style="font-size:16px;font-style:normal;font-weight:normal;line-height:125%;letter-spacing:0px;word-spacing:0px;fill:#000000;fill-opacity:1;stroke:none;font-family:Sans"
       x="163.6205"
       y="125.23927"
       id="text4487-3"
       sodipodi:linespacing="125%"><tspan
         sodipodi:role="line"
         id="tspan4489-1"
         x="163.6205"
         y="125.23927">Звуковой сигнал</tspan></text>
  </g>
</svg>
